<?xml version="1.0" encoding="UTF-8" standalone="no"?>
<svg width="160" height="160" viewBox="0 0 160 160" xmlns="http://www.w3.org/2000/svg" xmlns:xlink="http://www.w3.org/1999/xlink">
    <rect x="10" y="10" width="140" height="140" rx="20" ry="20" fill="#FF7E29"/>
    
    <polygon points="60,50 120,80 60,110" fill="#FFFFFF"/>
    
    <g transform="translate(61, 61) scale(0.65)">
        <path d="M4.5,20 C12,16 28,14 40,18 C52,22 58,30 60,34" stroke="#000000" stroke-width="8" fill="none" stroke-linecap="round"/>
        <path d="M4.5,20 C12,16 28,14 40,18 C52,22 58,30 60,34" stroke="#FFD700" stroke-width="6" fill="none" stroke-linecap="round"/>
        
        <path d="M8,30 C15,27 25,26 35,29 C45,32 50,38 52,42" stroke="#000000" stroke-width="8" fill="none" stroke-linecap="round"/>
        <path d="M8,30 C15,27 25,26 35,29 C45,32 50,38 52,42" stroke="#FFD700" stroke-width="6" fill="none" stroke-linecap="round"/>
        
        <path d="M12,40 C18,38 24,38 30,40 C36,42 40,46 42,48" stroke="#000000" stroke-width="8" fill="none" stroke-linecap="round"/>
        <path d="M12,40 C18,38 24,38 30,40 C36,42 40,46 42,48" stroke="#FFD700" stroke-width="6" fill="none" stroke-linecap="round"/>
    </g>
</svg>
